<svg xmlns="http://www.w3.org/2000/svg" viewBox="0 0 320 320" role="img" aria-labelledby="title desc">
  <title id="title">微信二维码占位图</title>
  <desc id="desc">用于替换为真实微信二维码图片的位置</desc>
  <rect width="320" height="320" fill="#ffffff"/>
  <rect x="22" y="22" width="276" height="276" rx="18" fill="#ffffff" stroke="#e4e7ec" stroke-width="8"/>
  <g fill="#111111">
    <rect x="54" y="54" width="72" height="72" rx="8"/>
    <rect x="194" y="54" width="72" height="72" rx="8"/>
    <rect x="54" y="194" width="72" height="72" rx="8"/>
    <rect x="72" y="72" width="36" height="36" rx="4" fill="#ffffff"/>
    <rect x="212" y="72" width="36" height="36" rx="4" fill="#ffffff"/>
    <rect x="72" y="212" width="36" height="36" rx="4" fill="#ffffff"/>
    <rect x="150" y="56" width="18" height="18"/>
    <rect x="150" y="92" width="42" height="18"/>
    <rect x="140" y="140" width="22" height="22"/>
    <rect x="178" y="140" width="46" height="22"/>
    <rect x="236" y="144" width="22" height="54"/>
    <rect x="146" y="184" width="18" height="58"/>
    <rect x="184" y="184" width="28" height="18"/>
    <rect x="220" y="220" width="46" height="46"/>
    <rect x="184" y="244" width="18" height="22"/>
  </g>
  <text x="160" y="158" fill="#d92d2b" font-family="Arial, 'Microsoft YaHei', sans-serif" font-size="22" font-weight="700" text-anchor="middle">替换二维码</text>
</svg>
